# xmcd
#
# Track frame offsets:
#	150
#	22502
#	37475
#	51425
#	72682
#	96170
#	118682
#	146040
#	179845
#	208962
#
# Disc length: 2937 seconds
#
# Revision: 1
# Processed by: cddbd v1.5.2PL0 Copyright (c) Steve Scherf et al.
# Submitted via: audiograbber 1.81.03
#
DISCID=a40b770a
DTITLE=The`Original Delta Fireballs - Come On With It Live
DYEAR=2006
DGENRE=Blues
TTITLE0=I've Had My Fun
TTITLE1=Jelly Roll King
TTITLE2=Down In The Bottom
TTITLE3=Blue And Lonesome
TTITLE4=Bring It On Home
TTITLE5=T'Ain't Nobody's Bizness If I Do
TTITLE6=The`Saint Louis Blues
TTITLE7=Born Under A Bad Sign
TTITLE8=Don't Explain
TTITLE9=Vacation From The Blues
EXTD=
EXTT0=
EXTT1=
EXTT2=
EXTT3=
EXTT4=
EXTT5=
EXTT6=
EXTT7=
EXTT8=
EXTT9=
PLAYORDER=
